<svg height='24px' width='24px'  fill="#e31837" xmlns="http://www.w3.org/2000/svg" viewBox="0 0 24 24" x="0px" y="0px"><title>Deadline</title><g><path d="M13,11v3a1,1,0,0,1-2,0V11a1,1,0,0,1,2,0Zm-.44,5.17a.76.76,0,0,0-.18-.09L12.2,16a1,1,0,0,0-.58.06,1,1,0,0,0-.33.21A1,1,0,0,0,11,17a1,1,0,0,0,.07.38,1.46,1.46,0,0,0,.22.33,1,1,0,0,0,1.42,0,1.15,1.15,0,0,0,.21-.33A1,1,0,0,0,13,17a1.05,1.05,0,0,0-.29-.71A1.58,1.58,0,0,0,12.56,16.17ZM20,14A8,8,0,1,1,6.31,8.38l-.72-.73A1,1,0,0,1,7,6.24l.9.9A7.94,7.94,0,0,1,11,6.07S11,6,11,6V4h-.5a1,1,0,0,1,0-2h3a1,1,0,0,1,0,2H13V6s0,0,0,.07A7.94,7.94,0,0,1,16.1,7.14l.9-.9a1,1,0,0,1,1.41,1.41l-.72.73A8,8,0,0,1,20,14Zm-2,0a6,6,0,1,0-6,6A6,6,0,0,0,18,14Z"></path></g></svg>