<svg height='24px' width='24px'  fill="#f28900" xmlns="http://www.w3.org/2000/svg" data-name="Layer 1" viewBox="0 0 100 100" x="0px" y="0px">
    <title>Artboard 96</title>
    <path d="M10,58A40,40,0,1,0,54,18.2V10h8a4,4,0,0,0,0-8H38a4,4,0,0,0,0,8h8v8.2A40.05,40.05,0,0,0,10,58Zm72,0A32,32,0,1,1,50,26,32,32,0,0,1,82,58Z"></path>
    <path d="M90,30a4,4,0,0,0,2.83-6.83l-12-12a4,4,0,0,0-5.66,5.66l12,12A4,4,0,0,0,90,30Z"></path>
    <path d="M19.17,11.17l-12,12a4,4,0,0,0,5.66,5.66l12-12a4,4,0,0,0-5.66-5.66Z"></path>
    <path d="M47.17,60.83a4,4,0,0,0,5.66,0l12-12a4,4,0,0,0-5.66-5.66l-12,12A4,4,0,0,0,47.17,60.83Z"></path>
</svg>