<svg height='18px' width='18px'  fill="#f5ba33" xmlns="http://www.w3.org/2000/svg" xmlns:xlink="http://www.w3.org/1999/xlink" version="1.1" x="0px" y="0px" viewBox="0 0 64 64" enable-background="new 0 0 64 64" xml:space="preserve"><g><g><path d="M32,18c-7.719,0-14,6.281-14,14c0,7.72,6.28,14,14,14s14-6.28,14-14C46,24.281,39.72,18,32,18z M32,42    c-5.514,0-10-4.486-10-10c0-5.514,4.486-10,10-10c5.514,0,10,4.486,10,10S37.514,42,32,42z"></path><path d="M44.728,21.272c0.512,0,1.023-0.195,1.414-0.585l2.829-2.828c0.781-0.781,0.781-2.047,0-2.829s-2.047-0.781-2.828,0    l-2.829,2.828c-0.781,0.781-0.781,2.047,0,2.829C43.704,21.077,44.216,21.272,44.728,21.272z"></path><path d="M17.857,43.313l-2.828,2.829c-0.781,0.781-0.781,2.048,0,2.828c0.391,0.391,0.902,0.586,1.414,0.586    s1.024-0.195,1.415-0.586l2.828-2.829c0.781-0.781,0.781-2.048,0-2.828C19.905,42.532,18.639,42.532,17.857,43.313z"></path><path d="M46.142,43.313c-0.781-0.781-2.047-0.781-2.828,0s-0.781,2.047,0,2.828l2.829,2.829c0.391,0.391,0.902,0.586,1.414,0.586    s1.023-0.195,1.414-0.586c0.781-0.781,0.781-2.047,0-2.828L46.142,43.313z"></path><path d="M17.858,20.686c0.39,0.391,0.902,0.586,1.414,0.586s1.024-0.195,1.414-0.586c0.781-0.781,0.781-2.047,0-2.828    l-2.828-2.828c-0.78-0.781-2.048-0.781-2.828,0c-0.781,0.781-0.781,2.047,0,2.828L17.858,20.686z"></path><path d="M32,16c1.104,0,2-0.896,2-2V8c0-1.104-0.896-2-2-2s-2,0.896-2,2v6C30,15.104,30.896,16,32,16z"></path><path d="M32,47.999c-1.104,0-2,0.896-2,2V56c0,1.104,0.896,2,2,2s2-0.896,2-2v-6.001C34,48.895,33.104,47.999,32,47.999z"></path><path d="M16,32c0-1.104-0.896-2-2-2l-6,0c-1.104,0-2,0.896-2,2s0.896,2,2,2l6-0.001C15.104,33.999,16,33.104,16,32z"></path><path d="M56,30l-6,0c-1.104,0-2,0.896-2,2c0,1.104,0.896,2,2,2L56,34c1.104,0,2-0.896,2-2S57.104,30,56,30z"></path></g></g></svg>